<?xml version="1.0" encoding="utf-8"?>
<!-- Generator: Adobe Illustrator 27.8.1, SVG Export Plug-In . SVG Version: 6.00 Build 0)  -->
<svg version="1.1" id="Layer_2" xmlns="http://www.w3.org/2000/svg" xmlns:xlink="http://www.w3.org/1999/xlink" x="0px" y="0px"
	 viewBox="0 0 166.27 149.64" style="enable-background:new 0 0 166.27 149.64;" xml:space="preserve">
<g>
	<path d="M83.14,149.64c0.35-0.27,26.78-23.99,40.55-34.62c10.43-8.05,20.59-16.46,28.36-27.26c12.05-16.75,17.22-35.18,12.5-55.67
		c-4.21-18.25-17.31-30.01-35.8-31.85C114.39-1.18,102,3.6,92.04,14.08c-3.22,3.38-5.86,7.31-8.91,11.18h0
		c-3.05-3.87-5.69-7.8-8.91-11.18C64.27,3.6,51.89-1.18,37.53,0.25C19.05,2.09,5.94,13.85,1.73,32.1
		c-4.72,20.49,0.45,38.92,12.5,55.67c7.77,10.8,17.93,19.21,28.36,27.26C56.35,125.65,82.79,149.37,83.14,149.64z"/>
</g>
</svg>
